<svg width="14" height="14" viewBox="0 0 14 14" fill="none" xmlns="http://www.w3.org/2000/svg">
<path d="M6.99635 11.2702L12.1005 7.69051C12.1962 7.62341 12.25 7.53234 12.25 7.43742C12.25 7.34246 12.1962 7.25142 12.1005 7.18429L6.99632 3.60484C6.79698 3.46505 6.47382 3.46505 6.27449 3.60484C6.07519 3.74461 6.07515 3.97127 6.27449 4.11106L11.0177 7.43742L6.27449 10.7639C6.17482 10.8338 6.125 10.9254 6.125 11.0171C6.125 11.1087 6.17482 11.2003 6.27452 11.2702C6.47386 11.4099 6.79702 11.4099 6.99635 11.2702Z" fill="#673800"/>
<path d="M3.49635 11.2702L8.60052 7.69051C8.69624 7.62341 8.75 7.53234 8.75 7.43742C8.75 7.34246 8.6962 7.25142 8.60048 7.18429L3.49632 3.60484C3.29698 3.46505 2.97382 3.46505 2.77449 3.60484C2.57519 3.74461 2.57515 3.97127 2.77449 4.11106L7.51772 7.43742L2.77449 10.7639C2.67482 10.8338 2.625 10.9254 2.625 11.0171C2.625 11.1087 2.67482 11.2003 2.77452 11.2702C2.97386 11.4099 3.29702 11.4099 3.49635 11.2702Z" fill="#673800"/>
</svg>
