<svg width="80" height="77" viewBox="0 0 80 77" fill="none" xmlns="http://www.w3.org/2000/svg">
<g filter="url(#filter0_d_0_2389)">
<path d="M69 36C69 52.0163 56.0163 65 40 65C23.9837 65 11 52.0163 11 36C11 19.9837 23.9837 7 40 7C56.0163 7 69 19.9837 69 36Z" fill="#673800" stroke="#673800" stroke-width="2"/>
<path d="M53.7071 36.7071C54.0976 36.3166 54.0976 35.6834 53.7071 35.2929L47.3431 28.9289C46.9526 28.5384 46.3195 28.5384 45.9289 28.9289C45.5384 29.3195 45.5384 29.9526 45.9289 30.3431L51.5858 36L45.9289 41.6569C45.5384 42.0474 45.5384 42.6805 45.9289 43.0711C46.3195 43.4616 46.9526 43.4616 47.3431 43.0711L53.7071 36.7071ZM27 37H53V35H27V37Z" fill="white"/>
</g>
<defs>
<filter id="filter0_d_0_2389" x="0" y="0" width="80" height="80" filterUnits="userSpaceOnUse" color-interpolation-filters="sRGB">
<feFlood flood-opacity="0" result="BackgroundImageFix"/>
<feColorMatrix in="SourceAlpha" type="matrix" values="0 0 0 0 0 0 0 0 0 0 0 0 0 0 0 0 0 0 127 0" result="hardAlpha"/>
<feOffset dy="4"/>
<feGaussianBlur stdDeviation="5"/>
<feComposite in2="hardAlpha" operator="out"/>
<feColorMatrix type="matrix" values="0 0 0 0 0.516667 0 0 0 0 0.389338 0 0 0 0 0.275556 0 0 0 0.38 0"/>
<feBlend mode="normal" in2="BackgroundImageFix" result="effect1_dropShadow_0_2389"/>
<feBlend mode="normal" in="SourceGraphic" in2="effect1_dropShadow_0_2389" result="shape"/>
</filter>
</defs>
</svg>
