<svg width="80" height="77" viewBox="0 0 80 77" fill="none" xmlns="http://www.w3.org/2000/svg">
<g filter="url(#filter0_d_0_2394)">
<path d="M11 36C11 52.0163 23.9837 65 40 65C56.0163 65 69 52.0163 69 36C69 19.9837 56.0163 7 40 7C23.9837 7 11 19.9837 11 36Z" fill="#673800" stroke="#673800" stroke-width="2"/>
<path d="M26.2929 36.7071C25.9024 36.3166 25.9024 35.6834 26.2929 35.2929L32.6569 28.9289C33.0474 28.5384 33.6805 28.5384 34.0711 28.9289C34.4616 29.3195 34.4616 29.9526 34.0711 30.3431L28.4142 36L34.0711 41.6569C34.4616 42.0474 34.4616 42.6805 34.0711 43.0711C33.6805 43.4616 33.0474 43.4616 32.6569 43.0711L26.2929 36.7071ZM53 37H27V35H53V37Z" fill="white"/>
</g>
<defs>
<filter id="filter0_d_0_2394" x="0" y="0" width="80" height="80" filterUnits="userSpaceOnUse" color-interpolation-filters="sRGB">
<feFlood flood-opacity="0" result="BackgroundImageFix"/>
<feColorMatrix in="SourceAlpha" type="matrix" values="0 0 0 0 0 0 0 0 0 0 0 0 0 0 0 0 0 0 127 0" result="hardAlpha"/>
<feOffset dy="4"/>
<feGaussianBlur stdDeviation="5"/>
<feComposite in2="hardAlpha" operator="out"/>
<feColorMatrix type="matrix" values="0 0 0 0 0.516667 0 0 0 0 0.389338 0 0 0 0 0.275556 0 0 0 0.38 0"/>
<feBlend mode="normal" in2="BackgroundImageFix" result="effect1_dropShadow_0_2394"/>
<feBlend mode="normal" in="SourceGraphic" in2="effect1_dropShadow_0_2394" result="shape"/>
</filter>
</defs>
</svg>
