<svg width="78" height="42" viewBox="0 0 78 42" fill="none" xmlns="http://www.w3.org/2000/svg">
<g clip-path="url(#clip0_16_2)">
<g filter="url(#filter0_d_16_2)">
<path d="M49.2929 21.7071C48.9024 21.3166 48.9024 20.6834 49.2929 20.2929L55.6569 13.9289C56.0474 13.5384 56.6805 13.5384 57.0711 13.9289C57.4616 14.3195 57.4616 14.9526 57.0711 15.3431L51.4142 21L57.0711 26.6569C57.4616 27.0474 57.4616 27.6805 57.0711 28.0711C56.6805 28.4616 56.0474 28.4616 55.6569 28.0711L49.2929 21.7071ZM68 22H50V20H68V22Z" fill="#673800"/>
</g>
</g>
<defs>
<filter id="filter0_d_16_2" x="39" y="7.63605" width="39" height="34.7279" filterUnits="userSpaceOnUse" color-interpolation-filters="sRGB">
<feFlood flood-opacity="0" result="BackgroundImageFix"/>
<feColorMatrix in="SourceAlpha" type="matrix" values="0 0 0 0 0 0 0 0 0 0 0 0 0 0 0 0 0 0 127 0" result="hardAlpha"/>
<feOffset dy="4"/>
<feGaussianBlur stdDeviation="5"/>
<feComposite in2="hardAlpha" operator="out"/>
<feColorMatrix type="matrix" values="0 0 0 0 0.516667 0 0 0 0 0.389338 0 0 0 0 0.275556 0 0 0 0.38 0"/>
<feBlend mode="normal" in2="BackgroundImageFix" result="effect1_dropShadow_16_2"/>
<feBlend mode="normal" in="SourceGraphic" in2="effect1_dropShadow_16_2" result="shape"/>
</filter>
<clipPath id="clip0_16_2">
<rect width="78" height="42" fill="white" transform="matrix(-1 0 0 1 78 0)"/>
</clipPath>
</defs>
</svg>
