<svg width="25" height="23" viewBox="0 0 25 23" fill="none" xmlns="http://www.w3.org/2000/svg">
<path d="M24.4274 0.406543C24.2006 0.207142 23.9244 0.0747191 23.6289 0.0236195C23.3334 -0.0274802 23.0298 0.00469234 22.751 0.116652L1.04452 8.79529C0.713461 8.92765 0.433414 9.16556 0.246287 9.47341C0.0591599 9.78126 -0.0249856 10.1425 0.0064413 10.5031C0.0378682 10.8637 0.183178 11.2042 0.420627 11.4737C0.658076 11.7432 0.974897 11.9273 1.32368 11.9982L7.02634 13.1589V20.364C7.02605 20.6955 7.12245 21.0197 7.30334 21.2955C7.48423 21.5713 7.74146 21.7862 8.04246 21.9131C8.34346 22.0399 8.67468 22.073 8.99418 22.0082C9.31369 21.9433 9.60709 21.7835 9.83724 21.5488L13.0445 18.2847L17.8414 22.5808C18.1397 22.8504 18.5247 22.9995 18.9237 23C19.0971 22.9998 19.2695 22.972 19.4345 22.9176C19.7066 22.8297 19.9514 22.6708 20.1443 22.4566C20.3373 22.2425 20.4717 21.9805 20.5341 21.697L24.958 2.05074C25.0253 1.7535 25.0115 1.44317 24.918 1.15334C24.8245 0.863524 24.6548 0.605266 24.4274 0.406543ZM1.41229 10.3761C1.40468 10.3242 1.4154 10.2712 1.44255 10.2266C1.46969 10.1819 1.51151 10.1485 1.56058 10.1323L19.7234 2.87045L7.56847 11.8045L1.60043 10.5897C1.54931 10.5825 1.50236 10.5571 1.46791 10.518C1.43346 10.4789 1.41376 10.4286 1.41229 10.3761ZM8.83925 20.5332C8.80636 20.5667 8.76445 20.5895 8.71882 20.5988C8.67319 20.608 8.62589 20.6033 8.58291 20.5851C8.53993 20.567 8.50319 20.5363 8.47734 20.497C8.4515 20.4576 8.4377 20.4113 8.43771 20.364V14.1588L11.9829 17.3339L8.83925 20.5332ZM19.1584 21.3761C19.1493 21.4166 19.1301 21.4539 19.1025 21.4845C19.075 21.515 19.0401 21.5378 19.0013 21.5505C18.9626 21.5633 18.9212 21.5655 18.8813 21.5571C18.8414 21.5487 18.8043 21.5299 18.7737 21.5025L8.86199 12.6256L23.5618 1.82105L19.1584 21.3761Z" fill="#E4E4E4"/>
</svg>
