<svg width="27" height="17" viewBox="0 0 27 17" fill="none" xmlns="http://www.w3.org/2000/svg">
<path d="M26.422 16.2077C25.2028 11.7696 21.8531 9.31425 20.4694 8.46206C25.3252 4.92675 25.418 0.859873 25.418 0.682686C25.418 0.568779 25.3758 0.463311 25.2956 0.383154C25.2155 0.302998 25.11 0.256592 24.9961 0.256592H20.9292C20.7436 0.256592 20.5791 0.378936 20.5242 0.556123C19.1995 4.84237 16.5122 6.03206 15.4195 6.34425V0.678467C15.4195 0.446436 15.2297 0.256592 14.9977 0.256592H11.0363C10.8042 0.256592 10.6144 0.446436 10.6144 0.678467V10.9047C9.34875 10.2846 6.18469 8.00644 5.8261 0.661592C5.81344 0.437998 5.62782 0.260811 5.40422 0.260811H0.982971C0.75094 0.260811 0.561096 0.450654 0.561096 0.682686V2.29847C0.561096 10.2635 7.0411 16.7435 15.0019 16.7435C15.2339 16.7435 15.4238 16.5536 15.4238 16.3216V11.2296C19.8619 12.0396 21.098 16.2499 21.1528 16.4313C21.2034 16.6127 21.3722 16.7392 21.5578 16.7392H26.017C26.1478 16.7392 26.2744 16.676 26.3503 16.5747C26.4347 16.4692 26.46 16.3342 26.422 16.2077ZM21.8573 15.8997C21.4397 14.7691 19.672 10.8794 15.0525 10.3225C14.9344 10.3057 14.812 10.3436 14.7234 10.428C14.6348 10.5082 14.58 10.6221 14.58 10.7444V15.8955C7.27735 15.6677 1.40485 9.65597 1.40485 2.29425V1.10034H5.01188C5.61094 10.5292 10.7198 11.875 10.9434 11.9299C11.07 11.9594 11.2008 11.9299 11.302 11.8497C11.4033 11.7696 11.4623 11.6472 11.4623 11.5164V1.09612H14.58V6.86315C14.58 6.9855 14.6306 7.0994 14.7234 7.17956C14.812 7.25972 14.9344 7.29769 15.0525 7.28503C15.2297 7.26394 19.3725 6.71128 21.2414 1.10034H24.532C24.3548 2.23519 23.5069 5.42878 19.4484 8.14565C19.3219 8.23003 19.2544 8.37347 19.2628 8.52534C19.2713 8.67722 19.3598 8.808 19.4948 8.8755C19.5413 8.89659 23.8697 11.0988 25.4517 15.8955H21.8573V15.8997Z" fill="white"/>
</svg>
